<?xml version="1.0" encoding="utf-8"?>
<!-- Generator: Adobe Illustrator 17.1.0, SVG Export Plug-In . SVG Version: 6.00 Build 0)  -->
<!DOCTYPE svg PUBLIC "-//W3C//DTD SVG 1.1//EN" "http://www.w3.org/Graphics/SVG/1.1/DTD/svg11.dtd">
<svg version="1.1" id="圖層_1" xmlns="http://www.w3.org/2000/svg" xmlns:xlink="http://www.w3.org/1999/xlink" x="0px" y="0px"
	 width="219px" height="80px" viewBox="0 0 219 80" enable-background="new 0 0 219 80" xml:space="preserve">
<g>
	<g>
		<path fill="#009F3B" d="M73.4,61.3l0.1-0.3c0.5,0,1-0.1,1.6-0.3c-0.2,0.4-0.3,0.8-0.3,1.1l-0.4,1.4c0.8,0,1.4-0.2,1.8-0.6
			s0.6-0.8,0.6-1.4c0-0.4-0.1-0.7-0.4-0.9C76,60.2,75.6,60,75.1,60c-0.8,0-1.6,0.2-2.3,0.6c-0.7,0.4-1.3,0.9-1.7,1.5
			c-0.4,0.6-0.6,1.2-0.6,1.8c0,0.2,0,0.3,0.1,0.5c0,0.1,0.1,0.3,0.2,0.4s0.2,0.2,0.4,0.3c0.2,0.1,0.3,0.2,0.4,0.3
			c0,0.1,0.1,0.1,0.1,0.2s0,0.2-0.1,0.2c-0.1,0.1-0.2,0.1-0.2,0.1c-0.3,0-0.5-0.2-0.8-0.5C70.2,65,70,64.5,70,64
			c0-0.7,0.2-1.4,0.7-2.1c0.4-0.7,1.1-1.2,1.9-1.6s1.7-0.6,2.7-0.6c0.8,0,1.4,0.2,1.8,0.5s0.6,0.7,0.6,1.1s-0.1,0.8-0.4,1.1
			C77,62.7,76.6,63,76,63.2c0.4,0.1,0.7,0.2,0.9,0.3c0.2,0.1,0.4,0.3,0.5,0.5c0.1,0.2,0.2,0.5,0.2,0.8c0,0.5-0.1,0.9-0.4,1.3
			s-0.7,0.8-1.2,1c-0.5,0.3-1.1,0.4-1.7,0.4c-0.2,0-0.5,0-1.1-0.1c-0.3,0-0.6,0-0.8,0c-0.5,0-0.8,0-1.2,0.1l0.1-0.4
			c0.5,0,0.8-0.1,1-0.3c0.2-0.2,0.4-0.6,0.6-1.3l1-3.8c0-0.2,0.1-0.3,0.1-0.4s0-0.1-0.1-0.2c-0.1,0-0.1-0.1-0.2-0.1
			C73.5,61.2,73.4,61.2,73.4,61.3z M74.3,63.6L74,64.9c-0.2,0.7-0.3,1.2-0.5,1.6c-0.1,0.2-0.2,0.4-0.4,0.5c0.4,0.1,0.7,0.1,1,0.1
			c0.8,0,1.4-0.2,1.8-0.7s0.6-1,0.6-1.6c0-0.3-0.1-0.5-0.2-0.7s-0.3-0.3-0.6-0.4C75.4,63.6,75,63.6,74.3,63.6z"/>
		<path fill="#009F3B" d="M81.9,65.8l0.2,0.3c-1.1,1-2,1.5-2.8,1.5c-0.3,0-0.6-0.1-0.7-0.3c-0.2-0.2-0.2-0.5-0.2-1
			c0-0.9,0.3-1.8,0.9-2.8s1.4-1.6,2.3-1.6c0.3,0,0.6,0.1,0.7,0.2c0.2,0.2,0.2,0.4,0.2,0.6c0,0.3-0.1,0.6-0.3,0.8
			c-0.2,0.3-0.6,0.6-1.1,0.8c-0.3,0.1-0.8,0.4-1.6,0.8c0,0.2-0.1,0.5-0.1,0.7c0,0.3,0,0.5,0.1,0.6s0.2,0.2,0.4,0.2
			c0.2,0,0.4,0,0.6-0.1C80.9,66.5,81.3,66.2,81.9,65.8z M79.6,64.9c0.7-0.3,1.2-0.6,1.6-1c0.2-0.2,0.4-0.5,0.4-0.7s0-0.3-0.1-0.4
			s-0.2-0.2-0.4-0.2c-0.2,0-0.3,0.1-0.5,0.2c-0.2,0.2-0.4,0.4-0.5,0.7C79.8,63.9,79.7,64.4,79.6,64.9z"/>
		<path fill="#009F3B" d="M84.9,61l1.1-0.4l-0.5,1.8h1.4l-0.1,0.5h-1.4l-0.6,2.2c-0.2,0.7-0.3,1.1-0.3,1.4c0,0.1,0,0.2,0.1,0.3
			c0.1,0.1,0.1,0.1,0.2,0.1s0.3-0.1,0.6-0.2c0.4-0.2,0.7-0.5,1.1-0.7l0.3,0.3c-1,0.7-1.6,1.1-1.9,1.3c-0.3,0.2-0.6,0.2-0.8,0.2
			c-0.2,0-0.3-0.1-0.4-0.2s-0.1-0.3-0.1-0.6c0-0.3,0.1-0.8,0.3-1.4l0.7-2.6h-1.1l0.1-0.5h1.1L84.9,61z"/>
		<path fill="#009F3B" d="M89.2,61l1.1-0.4l-0.5,1.8h1.4l-0.1,0.5h-1.4l-0.6,2.2c-0.2,0.7-0.3,1.1-0.3,1.4c0,0.1,0,0.2,0.1,0.3
			c0.1,0.1,0.1,0.1,0.2,0.1s0.3-0.1,0.6-0.2c0.4-0.2,0.7-0.5,1.1-0.7l0.3,0.3c-1,0.7-1.6,1.1-1.9,1.3c-0.3,0.2-0.6,0.2-0.8,0.2
			c-0.2,0-0.3-0.1-0.4-0.2s-0.1-0.3-0.1-0.6c0-0.3,0.1-0.8,0.3-1.4l0.7-2.6h-1.1l0.1-0.5H89L89.2,61z"/>
		<path fill="#009F3B" d="M95.2,65.8l0.2,0.3c-1.1,1-2,1.5-2.8,1.5c-0.3,0-0.6-0.1-0.7-0.3c-0.2-0.2-0.2-0.5-0.2-1
			c0-0.9,0.3-1.8,0.9-2.8s1.4-1.6,2.3-1.6c0.3,0,0.6,0.1,0.7,0.2c0.2,0.2,0.2,0.4,0.2,0.6c0,0.3-0.1,0.6-0.3,0.8
			c-0.2,0.3-0.6,0.6-1.1,0.8c-0.3,0.1-0.8,0.4-1.6,0.8c0,0.2-0.1,0.5-0.1,0.7c0,0.3,0,0.5,0.1,0.6s0.2,0.2,0.4,0.2
			c0.2,0,0.4,0,0.6-0.1C94.2,66.5,94.6,66.2,95.2,65.8z M92.9,64.9c0.7-0.3,1.2-0.6,1.6-1c0.2-0.2,0.4-0.5,0.4-0.7s0-0.3-0.1-0.4
			s-0.2-0.2-0.4-0.2c-0.2,0-0.3,0.1-0.5,0.2c-0.2,0.2-0.4,0.4-0.5,0.7C93.1,63.9,92.9,64.4,92.9,64.9z"/>
		<path fill="#009F3B" d="M97.5,67.5h-1l0.5-1.7c0.2-0.9,0.4-1.7,0.6-2.4c0-0.2,0.1-0.3,0.1-0.4s0-0.2-0.1-0.2s-0.2,0-0.3,0.1
			c-0.1,0.1-0.4,0.3-0.7,0.7l-0.2-0.2c0.4-0.4,0.8-0.8,1.3-1c0.4-0.2,0.7-0.3,1-0.3c0.1,0,0.1,0,0.2,0.1l0.1,0.1
			c0,0.1,0,0.2-0.1,0.4l-0.3,1.2c0.4-0.7,1-1.3,1.5-1.8c0.3-0.2,0.5-0.4,0.7-0.4c0.1,0,0.2,0,0.3,0.1c0.1,0.1,0.1,0.2,0.1,0.3
			s0,0.2-0.1,0.3s-0.3,0.2-0.6,0.3c-0.3,0.1-0.6,0.2-0.8,0.4c-0.2,0.2-0.4,0.4-0.7,0.7c-0.2,0.3-0.4,0.6-0.5,0.8
			c-0.1,0.2-0.2,0.8-0.4,1.6L97.5,67.5z"/>
		<path fill="#009F3B" d="M106.4,61.3l0.1-0.3c0.6-0.1,1.2-0.1,1.6-0.3c-0.1,0.3-0.2,0.7-0.4,1.2l-0.5,1.8h0.6
			c0.3,0,0.6-0.1,0.9-0.2c0.3-0.2,0.6-0.4,0.9-0.8s0.4-0.8,0.4-1.2s-0.2-0.8-0.5-1c-0.3-0.3-0.8-0.4-1.5-0.4s-1.5,0.2-2.2,0.5
			c-0.7,0.4-1.3,0.8-1.7,1.4c-0.4,0.6-0.6,1.1-0.6,1.7c0,0.3,0.1,0.5,0.2,0.7s0.3,0.4,0.5,0.6s0.3,0.3,0.3,0.5c0,0.1,0,0.2-0.1,0.2
			c-0.1,0.1-0.2,0.1-0.3,0.1c-0.3,0-0.5-0.2-0.8-0.5c-0.2-0.3-0.4-0.8-0.4-1.3c0-1,0.4-1.9,1.2-2.7c1-1.1,2.4-1.6,4.1-1.6
			c0.6,0,1.2,0.1,1.6,0.2c0.4,0.2,0.7,0.4,0.9,0.7c0.2,0.3,0.3,0.6,0.3,0.9c0,0.4-0.1,0.8-0.4,1.2s-0.7,0.7-1.3,1
			c-0.6,0.2-1.2,0.4-1.9,0.4c-0.1,0-0.3,0-0.5,0l-0.5,2c-0.1,0.3-0.2,0.7-0.3,1c0.3,0.1,0.6,0.1,0.9,0.1s0.7-0.1,1-0.2l-0.1,0.4
			c-0.3,0.1-0.6,0.1-0.9,0.1c-0.2,0-0.6,0-1-0.1c-0.4,0-0.6-0.1-0.9-0.1c-0.4,0-0.9,0-1.3,0.1l0.1-0.3c0.5-0.1,0.8-0.2,0.9-0.3
			c0.2-0.2,0.4-0.6,0.6-1.2l1-3.9C106.4,61.5,106.5,61.4,106.4,61.3c0.1-0.1,0.1-0.1,0-0.2s-0.1-0.1-0.2-0.1
			C106.5,61.3,106.4,61.3,106.4,61.3z"/>
		<path fill="#009F3B" d="M111.9,67.5h-1l0.5-1.7c0.2-0.9,0.4-1.7,0.6-2.4c0-0.2,0.1-0.3,0.1-0.4s0-0.2-0.1-0.2s-0.2,0-0.3,0.1
			c-0.1,0.1-0.4,0.3-0.7,0.7l-0.2-0.2c0.4-0.4,0.8-0.8,1.3-1c0.4-0.2,0.7-0.3,1-0.3c0.1,0,0.1,0,0.2,0.1l0.1,0.1
			c0,0.1,0,0.2-0.1,0.4l-0.3,1.2c0.4-0.7,1-1.3,1.5-1.8c0.3-0.2,0.5-0.4,0.7-0.4c0.1,0,0.2,0,0.3,0.1c0.1,0.1,0.1,0.2,0.1,0.3
			s0,0.2-0.1,0.3s-0.3,0.2-0.6,0.3c-0.3,0.1-0.6,0.2-0.8,0.4c-0.2,0.2-0.4,0.4-0.7,0.7c-0.2,0.3-0.4,0.6-0.5,0.8
			c-0.1,0.2-0.2,0.8-0.4,1.6L111.9,67.5z"/>
		<path fill="#009F3B" d="M118,62c0.4,0,0.8,0.2,1.1,0.5c0.3,0.3,0.4,0.8,0.4,1.4c0,1-0.3,1.8-1,2.6c-0.7,0.8-1.4,1.1-2.2,1.1
			c-0.5,0-0.9-0.2-1.1-0.5c-0.3-0.3-0.4-0.7-0.4-1.2c0-0.9,0.3-1.7,0.8-2.5C116.2,62.5,117,62,118,62z M117.5,62.5
			c-0.4,0-0.7,0.3-1.1,0.8s-0.5,1.2-0.5,2.2c0,0.6,0.1,1,0.3,1.3c0.2,0.2,0.4,0.4,0.6,0.4c0.4,0,0.7-0.2,1-0.7
			c0.4-0.6,0.6-1.3,0.6-2.2c0-0.6-0.1-1.1-0.3-1.4C118,62.6,117.7,62.5,117.5,62.5z"/>
		<path fill="#009F3B" d="M122.2,63.1c0.4-0.4,0.7-0.7,1.1-0.8c0.3-0.2,0.7-0.3,0.9-0.3c0.3,0,0.6,0.1,0.7,0.4
			c0.2,0.2,0.3,0.6,0.3,1.1c0,0.7-0.2,1.4-0.5,2.1s-0.8,1.2-1.3,1.5c-0.5,0.4-1,0.5-1.5,0.5c-0.4,0-0.7-0.1-1-0.3
			c-0.2-0.2-0.4-0.5-0.4-0.9c0-0.3,0.1-0.7,0.2-1.2l0.8-3.4c0.2-0.8,0.4-1.5,0.7-1.9c0.3-0.4,0.7-0.8,1.1-1c0.5-0.3,0.9-0.4,1.3-0.4
			c0.3,0,0.4,0,0.6,0.1c0.1,0.1,0.2,0.2,0.2,0.3s-0.1,0.2-0.2,0.3s-0.3,0.1-0.5,0.1c-0.1,0-0.4,0-0.8-0.1c-0.2,0-0.3,0-0.4,0
			c-0.2,0-0.4,0.1-0.5,0.3s-0.2,0.6-0.4,1.4L122.2,63.1z M123.5,62.8c-0.2,0-0.5,0.1-0.8,0.4s-0.6,0.7-0.8,1.3
			c-0.3,0.6-0.4,1.3-0.4,1.9c0,0.2,0.1,0.4,0.2,0.6c0.2,0.2,0.3,0.2,0.5,0.2c0.5,0,0.9-0.4,1.3-1.1c0.4-0.8,0.6-1.5,0.6-2.3
			c0-0.3-0.1-0.6-0.2-0.8C123.8,62.8,123.7,62.8,123.5,62.8z"/>
		<path fill="#009F3B" d="M126.1,63.5l-0.3-0.2c0.4-0.5,0.8-0.8,1.2-1c0.4-0.2,0.7-0.3,0.9-0.3c0.1,0,0.2,0,0.3,0.1s0.1,0.1,0.1,0.2
			s-0.1,0.7-0.4,1.6c-0.5,1.5-0.7,2.5-0.7,2.8c0,0.1,0,0.1,0,0.2l0.1,0.1c0.1,0,0.5-0.3,1.1-0.8l0.3,0.2c-0.6,0.6-1,0.9-1.3,1.1
			s-0.5,0.2-0.7,0.2s-0.3,0-0.4-0.1s-0.1-0.2-0.1-0.4c0-0.5,0.3-1.9,1-3.9c0-0.1,0-0.2,0-0.3s0-0.1-0.1-0.1s-0.2,0-0.3,0.1
			C126.7,62.9,126.5,63.1,126.1,63.5z M128.7,59.2c0.1,0,0.2,0,0.3,0.1s0.1,0.2,0.1,0.3c0,0.2-0.1,0.4-0.2,0.5
			c-0.1,0.1-0.3,0.2-0.5,0.2c-0.1,0-0.2,0-0.3-0.1S128,60,128,59.8s0.1-0.4,0.2-0.5C128.4,59.3,128.5,59.2,128.7,59.2z"/>
		<path fill="#009F3B" d="M132.4,62c0.4,0,0.8,0.2,1.1,0.5s0.4,0.8,0.4,1.4c0,1-0.3,1.8-1,2.6c-0.7,0.8-1.4,1.1-2.2,1.1
			c-0.5,0-0.9-0.2-1.1-0.5c-0.3-0.3-0.4-0.7-0.4-1.2c0-0.9,0.3-1.7,0.8-2.5C130.6,62.5,131.4,62,132.4,62z M131.8,62.5
			c-0.4,0-0.7,0.3-1.1,0.8c-0.4,0.5-0.5,1.2-0.5,2.2c0,0.6,0.1,1,0.3,1.3c0.2,0.2,0.4,0.4,0.6,0.4c0.4,0,0.7-0.2,1-0.7
			c0.4-0.6,0.6-1.3,0.6-2.2c0-0.6-0.1-1.1-0.3-1.4C132.3,62.6,132.1,62.5,131.8,62.5z"/>
		<path fill="#009F3B" d="M136.4,61l1.1-0.4l-0.5,1.8h1.4l-0.1,0.5h-1.4l-0.6,2.2c-0.2,0.7-0.3,1.1-0.3,1.4c0,0.1,0,0.2,0.1,0.3
			c0,0.1,0.1,0.1,0.2,0.1c0.1,0,0.3-0.1,0.6-0.2c0.4-0.2,0.7-0.5,1.1-0.7l0.3,0.3c-1,0.7-1.6,1.1-1.9,1.3c-0.3,0.2-0.6,0.2-0.8,0.2
			s-0.3-0.1-0.4-0.2c-0.1-0.1-0.1-0.3-0.1-0.6c0-0.3,0.1-0.8,0.3-1.4l0.7-2.6H135l0.1-0.5h1.1L136.4,61z"/>
		<path fill="#009F3B" d="M139.1,63.5l-0.3-0.2c0.4-0.5,0.8-0.8,1.2-1s0.7-0.3,0.9-0.3c0.1,0,0.2,0,0.3,0.1s0.1,0.1,0.1,0.2
			s-0.1,0.7-0.4,1.6c-0.5,1.5-0.7,2.5-0.7,2.8c0,0.1,0,0.1,0,0.2l0.1,0.1c0.1,0,0.5-0.3,1.1-0.8l0.3,0.2c-0.6,0.6-1,0.9-1.3,1.1
			s-0.5,0.2-0.7,0.2s-0.3,0-0.4-0.1c-0.1-0.1-0.1-0.2-0.1-0.4c0-0.5,0.3-1.9,1-3.9c0-0.1,0-0.2,0-0.3s0-0.1-0.1-0.1s-0.2,0-0.3,0.1
			C139.7,62.9,139.5,63.1,139.1,63.5z M141.7,59.2c0.1,0,0.2,0,0.3,0.1s0.1,0.2,0.1,0.3c0,0.2-0.1,0.4-0.2,0.5
			c-0.1,0.1-0.3,0.2-0.5,0.2c-0.1,0-0.2,0-0.3-0.1S141,60,141,59.8s0.1-0.4,0.2-0.5C141.4,59.3,141.5,59.2,141.7,59.2z"/>
		<path fill="#009F3B" d="M145.8,66l0.1,0.4c-1.1,0.8-1.9,1.2-2.7,1.2c-0.4,0-0.7-0.1-0.8-0.4c-0.2-0.3-0.3-0.6-0.3-1
			c0-0.7,0.2-1.4,0.6-2.1c0.4-0.7,0.8-1.3,1.4-1.7c0.4-0.3,0.9-0.4,1.4-0.4c0.3,0,0.6,0.1,0.7,0.2c0.2,0.1,0.3,0.3,0.3,0.4
			s0,0.2-0.1,0.3S146.2,63,146,63s-0.4-0.1-0.6-0.2c-0.3-0.1-0.5-0.2-0.6-0.2c-0.2,0-0.4,0.1-0.6,0.3c-0.2,0.2-0.4,0.6-0.6,1.1
			c-0.2,0.6-0.3,1.1-0.3,1.7c0,0.4,0.1,0.7,0.2,0.9c0.1,0.2,0.3,0.3,0.5,0.3C144.4,66.9,145.1,66.6,145.8,66z"/>
		<path fill="#009F3B" d="M152.8,61.3l0.1-0.3c0.5,0,1-0.1,1.6-0.3c-0.2,0.4-0.3,0.8-0.3,1.1l-0.4,1.4c0.8,0,1.4-0.2,1.8-0.6
			c0.4-0.4,0.6-0.8,0.6-1.4c0-0.4-0.1-0.7-0.4-0.9c-0.3-0.2-0.7-0.3-1.3-0.3c-0.8,0-1.6,0.2-2.3,0.6s-1.3,0.9-1.7,1.5
			s-0.6,1.2-0.6,1.8c0,0.2,0,0.3,0.1,0.5c0,0.1,0.1,0.3,0.2,0.4c0.1,0.1,0.2,0.2,0.4,0.3c0.2,0.1,0.3,0.2,0.4,0.3
			c0,0.1,0.1,0.1,0.1,0.2s0,0.2-0.1,0.2c-0.1,0.1-0.2,0.1-0.2,0.1c-0.3,0-0.5-0.2-0.8-0.5c-0.3-0.4-0.4-0.8-0.4-1.3
			c0-0.7,0.2-1.4,0.7-2.1c0.4-0.7,1.1-1.2,1.9-1.6c0.8-0.4,1.7-0.6,2.7-0.6c0.8,0,1.4,0.2,1.8,0.5c0.4,0.3,0.6,0.7,0.6,1.1
			s-0.1,0.8-0.4,1.1c-0.3,0.3-0.7,0.6-1.3,0.8c0.4,0.1,0.7,0.2,0.9,0.3s0.4,0.3,0.5,0.5c0.1,0.2,0.2,0.5,0.2,0.8
			c0,0.5-0.1,0.9-0.4,1.3c-0.3,0.4-0.7,0.8-1.2,1c-0.5,0.3-1.1,0.4-1.7,0.4c-0.2,0-0.5,0-1.1-0.1c-0.3,0-0.6,0-0.8,0
			c-0.4,0-0.8,0-1.2,0.1l0.1-0.4c0.5,0,0.8-0.1,1-0.3c0.2-0.2,0.4-0.6,0.6-1.3l1-3.8c0-0.2,0.1-0.3,0.1-0.4s0-0.1-0.1-0.2
			c-0.1,0-0.1-0.1-0.2-0.1C152.9,61.2,152.9,61.2,152.8,61.3z M153.7,63.6l-0.3,1.3c-0.2,0.7-0.3,1.2-0.5,1.6
			c-0.1,0.2-0.2,0.4-0.4,0.5c0.4,0.1,0.7,0.1,1,0.1c0.8,0,1.4-0.2,1.8-0.7c0.4-0.5,0.6-1,0.6-1.6c0-0.3-0.1-0.5-0.2-0.7
			c-0.1-0.2-0.3-0.3-0.6-0.4C154.9,63.6,154.4,63.6,153.7,63.6z"/>
		<path fill="#009F3B" d="M161.3,65.8l0.2,0.3c-1.1,1-2,1.5-2.8,1.5c-0.3,0-0.6-0.1-0.7-0.3c-0.2-0.2-0.2-0.5-0.2-1
			c0-0.9,0.3-1.8,0.9-2.8c0.6-1,1.4-1.6,2.3-1.6c0.3,0,0.6,0.1,0.7,0.2c0.2,0.2,0.2,0.4,0.2,0.6c0,0.3-0.1,0.6-0.3,0.8
			c-0.2,0.3-0.6,0.6-1.1,0.8c-0.3,0.1-0.8,0.4-1.6,0.8c0,0.2-0.1,0.5-0.1,0.7c0,0.3,0,0.5,0.1,0.6s0.2,0.2,0.4,0.2s0.4,0,0.6-0.1
			C160.4,66.5,160.8,66.2,161.3,65.8z M159,64.9c0.7-0.3,1.2-0.6,1.6-1c0.2-0.2,0.4-0.5,0.4-0.7s0-0.3-0.1-0.4s-0.2-0.2-0.4-0.2
			s-0.3,0.1-0.5,0.2c-0.2,0.2-0.4,0.4-0.5,0.7C159.2,63.9,159.1,64.4,159,64.9z"/>
		<path fill="#009F3B" d="M164.3,61l1.1-0.4l-0.5,1.8h1.4l-0.1,0.5h-1.4l-0.6,2.2c-0.2,0.7-0.3,1.1-0.3,1.4c0,0.1,0,0.2,0.1,0.3
			c0.1,0.1,0.1,0.1,0.2,0.1c0.1,0,0.3-0.1,0.6-0.2c0.4-0.2,0.7-0.5,1.1-0.7l0.3,0.3c-1,0.7-1.6,1.1-1.9,1.3
			c-0.3,0.2-0.6,0.2-0.8,0.2s-0.3-0.1-0.4-0.2c-0.1-0.1-0.1-0.3-0.1-0.6c0-0.3,0.1-0.8,0.3-1.4L164,63h-1.1l0.1-0.5h1.1L164.3,61z"
			/>
		<path fill="#009F3B" d="M168.7,61l1.1-0.4l-0.5,1.8h1.4l-0.1,0.5h-1.4l-0.6,2.2c-0.2,0.7-0.3,1.1-0.3,1.4c0,0.1,0,0.2,0.1,0.3
			c0.1,0.1,0.1,0.1,0.2,0.1c0.1,0,0.3-0.1,0.6-0.2c0.4-0.2,0.7-0.5,1.1-0.7l0.3,0.3c-1,0.7-1.6,1.1-1.9,1.3
			c-0.3,0.2-0.6,0.2-0.8,0.2s-0.3-0.1-0.4-0.2c-0.1-0.1-0.1-0.3-0.1-0.6c0-0.3,0.1-0.8,0.3-1.4l0.7-2.6h-1.1l0.1-0.5h1.1L168.7,61z"
			/>
		<path fill="#009F3B" d="M174.6,65.8l0.2,0.3c-1.1,1-2,1.5-2.8,1.5c-0.3,0-0.6-0.1-0.7-0.3c-0.2-0.2-0.2-0.5-0.2-1
			c0-0.9,0.3-1.8,0.9-2.8c0.6-1,1.4-1.6,2.3-1.6c0.3,0,0.6,0.1,0.7,0.2c0.2,0.2,0.2,0.4,0.2,0.6c0,0.3-0.1,0.6-0.3,0.8
			c-0.2,0.3-0.6,0.6-1.1,0.8c-0.3,0.1-0.8,0.4-1.6,0.8c0,0.2-0.1,0.5-0.1,0.7c0,0.3,0,0.5,0.1,0.6s0.2,0.2,0.4,0.2s0.4,0,0.6-0.1
			C173.6,66.5,174.1,66.2,174.6,65.8z M172.3,64.9c0.7-0.3,1.2-0.6,1.6-1c0.2-0.2,0.4-0.5,0.4-0.7s0-0.3-0.1-0.4s-0.2-0.2-0.4-0.2
			s-0.3,0.1-0.5,0.2c-0.2,0.2-0.4,0.4-0.5,0.7C172.5,63.9,172.4,64.4,172.3,64.9z"/>
		<path fill="#009F3B" d="M177,67.5h-1l0.5-1.7c0.2-0.9,0.4-1.7,0.6-2.4c0-0.2,0.1-0.3,0.1-0.4s0-0.2-0.1-0.2s-0.2,0-0.3,0.1
			s-0.4,0.3-0.7,0.7l-0.2-0.2c0.4-0.4,0.8-0.8,1.3-1c0.4-0.2,0.7-0.3,1-0.3c0.1,0,0.1,0,0.2,0.1l0.1,0.1c0,0.1,0,0.2-0.1,0.4
			l-0.3,1.2c0.4-0.7,1-1.3,1.5-1.8c0.3-0.2,0.5-0.4,0.7-0.4c0.1,0,0.2,0,0.3,0.1s0.1,0.2,0.1,0.3s0,0.2-0.1,0.3s-0.3,0.2-0.6,0.3
			s-0.6,0.2-0.8,0.4s-0.4,0.4-0.7,0.7c-0.2,0.3-0.4,0.6-0.5,0.8c-0.1,0.2-0.2,0.8-0.4,1.6L177,67.5z"/>
		<path fill="#009F3B" d="M182.3,67.6l0.1-0.3c0.5-0.1,0.8-0.2,0.9-0.3c0.2-0.1,0.3-0.3,0.4-0.6c0.1-0.3,0.3-0.9,0.5-1.8
			c0.3-1.2,0.5-2,0.8-2.6c0.4-0.8,0.8-1.4,1.3-1.7c0.5-0.4,1.1-0.6,1.6-0.6c0.3,0,0.6,0.1,0.9,0.3c0.2,0.2,0.4,0.4,0.4,0.5
			s0,0.2-0.1,0.3s-0.2,0.1-0.3,0.1s-0.3-0.1-0.5-0.3s-0.4-0.3-0.5-0.4s-0.2-0.1-0.3-0.1s-0.3,0-0.4,0.1c-0.2,0.1-0.4,0.3-0.6,0.5
			c-0.2,0.3-0.4,0.7-0.6,1.2c-0.1,0.4-0.3,0.9-0.5,1.7c-0.3,1.3-0.6,2.1-0.8,2.6c-0.1,0.3-0.3,0.6-0.5,0.7c0.6-0.1,1.1-0.2,1.5-0.2
			c0.2,0,0.4,0,0.6,0c0.2,0,0.5,0.1,1,0.2c0.4,0.1,0.7,0.1,0.9,0.1s0.3-0.1,0.4-0.2c0.1-0.1,0.2-0.2,0.2-0.3c0-0.1,0-0.2-0.1-0.3
			c-0.1-0.1-0.1-0.2-0.1-0.3c0-0.1,0-0.2,0.1-0.3c0.1-0.1,0.2-0.1,0.3-0.1s0.2,0.1,0.3,0.2s0.1,0.3,0.1,0.5c0,0.4-0.2,0.7-0.5,1
			s-0.7,0.4-1.3,0.4c-0.3,0-0.6,0-1-0.1c-1.4-0.1-2.4-0.2-2.8-0.2C183.4,67.5,182.8,67.5,182.3,67.6z"/>
		<path fill="#009F3B" d="M190.9,63.5l-0.3-0.2c0.4-0.5,0.8-0.8,1.2-1s0.7-0.3,0.9-0.3c0.1,0,0.2,0,0.3,0.1s0.1,0.1,0.1,0.2
			s-0.1,0.7-0.4,1.6c-0.5,1.5-0.7,2.5-0.7,2.8c0,0.1,0,0.1,0,0.2l0.1,0.1c0.1,0,0.5-0.3,1.1-0.8l0.3,0.2c-0.6,0.6-1,0.9-1.3,1.1
			s-0.5,0.2-0.7,0.2s-0.3,0-0.4-0.1c-0.1-0.1-0.1-0.2-0.1-0.4c0-0.5,0.3-1.9,1-3.9c0-0.1,0-0.2,0-0.3s0-0.1-0.1-0.1s-0.2,0-0.3,0.1
			C191.5,62.9,191.3,63.1,190.9,63.5z M193.5,59.2c0.1,0,0.2,0,0.3,0.1s0.1,0.2,0.1,0.3c0,0.2-0.1,0.4-0.2,0.5
			c-0.1,0.1-0.3,0.2-0.5,0.2c-0.1,0-0.2,0-0.3-0.1s-0.1-0.2-0.1-0.4s0.1-0.4,0.2-0.5C193.2,59.3,193.3,59.2,193.5,59.2z"/>
		<path fill="#009F3B" d="M194.2,62.4h1.6c0.3-1.1,0.6-1.9,0.9-2.4c0.3-0.5,0.8-0.9,1.3-1.2s1-0.5,1.5-0.5c0.3,0,0.5,0.1,0.6,0.2
			s0.2,0.2,0.2,0.4c0,0.1,0,0.2-0.1,0.3s-0.2,0.1-0.4,0.1s-0.4,0-0.9-0.1c-0.2,0-0.4-0.1-0.5-0.1c-0.3,0-0.6,0.2-0.8,0.5
			c-0.2,0.4-0.4,0.8-0.6,1.4l-0.3,1.4h1.8l-0.1,0.5h-1.8l-1,4.1c-0.3,1.3-0.8,2.2-1.5,2.9c-0.7,0.6-1.5,1-2.3,1
			c-0.3,0-0.5-0.1-0.6-0.2s-0.2-0.2-0.2-0.4c0-0.1,0-0.2,0.1-0.3c0.1-0.1,0.2-0.1,0.4-0.1c0.1,0,0.2,0,0.4,0c0.3,0,0.6,0.1,0.9,0.1
			c0.4,0,0.8-0.1,1-0.3c0.2-0.2,0.4-0.7,0.6-1.5l1.3-5.3H194L194.2,62.4z"/>
		<path fill="#009F3B" d="M201.7,65.8l0.2,0.3c-1.1,1-2,1.5-2.8,1.5c-0.3,0-0.6-0.1-0.7-0.3c-0.2-0.2-0.2-0.5-0.2-1
			c0-0.9,0.3-1.8,0.9-2.8c0.6-1,1.4-1.6,2.3-1.6c0.3,0,0.6,0.1,0.7,0.2c0.2,0.2,0.2,0.4,0.2,0.6c0,0.3-0.1,0.6-0.3,0.8
			c-0.2,0.3-0.6,0.6-1.1,0.8c-0.3,0.1-0.8,0.4-1.6,0.8c0,0.2-0.1,0.5-0.1,0.7c0,0.3,0,0.5,0.1,0.6s0.2,0.2,0.4,0.2s0.4,0,0.6-0.1
			C200.8,66.5,201.2,66.2,201.7,65.8z M199.4,64.9c0.7-0.3,1.2-0.6,1.6-1c0.2-0.2,0.4-0.5,0.4-0.7s0-0.3-0.1-0.4s-0.2-0.2-0.4-0.2
			s-0.3,0.1-0.5,0.2c-0.2,0.2-0.4,0.4-0.5,0.7C199.6,63.9,199.5,64.4,199.4,64.9z"/>
	</g>
	<g>
		<g>
			<polygon fill="#009E3B" points="27.4,54.4 27.9,61.4 29.1,61.9 28.4,53.4 			"/>
			<path fill="#009E3B" d="M32.5,51.2c0,0,0.2,7.7,0.3,8.5c0,0.8,0.1,3.1,0.1,3.1l1.1,0.4l-0.3-13L32.5,51.2z"/>
			<path fill="#009E3B" d="M36.7,47.6l0.2,11.1c0,0-0.4,0.4-1.2,0.4c-0.8,0.1-2.3,0.1-2.3,0.1l0.1,0.9c0,0,1.3-0.2,1.8-0.2
				s2.2-0.4,2.8-0.5s1.2-0.3,1.3-0.5c0-0.3,0.2-0.5,0-0.6s-0.3-0.3,1.3-0.6c1.6-0.4,2.4-0.3,3-0.3c0.5,0,0.8-0.1,0.8-0.4
				s-0.4-0.4-1.2-0.4s-3.4-0.1-5.4,1.1l-0.2-11.3L36.7,47.6z"/>
			<g>
				<path fill="#009E3B" d="M47,35.1c-1-1.2-2.8-1.4-4-0.4c-4.2,2.8-8.2,5.9-12.2,8.9L30.2,44c1.3-2,2.7-3.9,4.1-5.8l4.7-6.6
					c1.1-1.6,0.7-3.8-1-4.9l-0.3-0.2c-0.8-0.5-1.8-0.7-2.8-0.6c0.5-0.9,1-1.8,1.4-2.7l0.2-3.3c-0.1-0.3-0.2-0.6-0.3-0.8
					c-0.8-1.5-2.6-2.1-4.2-1.3l0,0c0.9-1.2,1.8-2.4,2.6-3.7c0,0,0-0.2,0-0.3s0-0.2-0.1-0.3c-0.2-0.4-0.7-0.6-1.1-0.4
					c-0.2,0-0.4,0-0.5,0.2c-0.1,0.1-0.2,0.2-0.3,0.3l0,0c-0.1,0.1-0.3,0.2-0.4,0.3c-0.2,0.1-0.4,0.2-0.6,0.4c-0.5,0.3-1,0.6-1.6,1.1
					c-3.7,3.1-7.1,6.2-10,9.9l-0.5,1c-0.1,0.3-0.1,0.7-0.1,1c0.2,1.4,1.5,2.4,3,2.3l1.6-0.4c0.5-0.3,1-0.6,1.6-0.8
					c-2.7,4-5.6,7.9-8.3,11.9L16.5,42c-0.2,0.5-0.3,1-0.2,1.5c0.1,1.9,1.9,3.4,3.8,3.2h0.4L19.8,50c-0.2,1.1,0.2,2.2,1.1,3l1,1
					l0.6,0.6c1.3,1.2,3.2,1.4,4.6,0.4l4.4-2.7c5.6-3.8,10.1-8.9,15.2-13.2C47.9,38.1,48,36.3,47,35.1z"/>
				<path fill="#009E3B" d="M45.8,43.8C45.8,43.8,45.7,43.8,45.8,43.8c-0.2-0.1-0.4-0.2-0.5-0.2c-2,0.7-3.5,2.1-5,3.4
					c-3.9,2.7-8.1,5.2-10.3,9.4c-0.1,0.1-0.1,0.2,0,0.3s0.2,0.1,0.3,0l-0.1-0.1c3.3-2.1,6.5-4.5,9.5-7c0.3,0.1,0.7,0,1-0.3
					c1.8-1.8,3.5-3.6,5.3-5.4C45.9,43.9,45.8,43.9,45.8,43.8L45.8,43.8z"/>
				<path fill="#009E3B" d="M41.5,49.9c-2.1,1.8-4.5,3.4-5.8,5.9c-0.1,0.1-0.1,0.3,0,0.4s0.3,0.1,0.5,0L36,56.1
					c2.6-0.9,4.4-3.2,6.9-4.4c0.5-0.4,0.6-1.1,0.2-1.6C42.7,49.6,42,49.5,41.5,49.9z"/>
				<path fill="#009E3B" d="M38.3,34.8c0.1,0.1,0.2,0.1,0.3,0c0.8-0.5,1.6-1,2.4-1.5c0.3-0.2,0.3-0.6,0.1-0.9
					c-0.2-0.3-0.6-0.3-0.9-0.1c-0.7,0.6-1.4,1.3-1.9,2.1C38.2,34.6,38.2,34.7,38.3,34.8z"/>
			</g>
		</g>
		<polygon fill="#009E3B" points="32.3,40.4 32.1,43.5 33.7,42.7 33.7,38.1 		"/>
		<path fill="#009E3B" d="M36.7,39.7c0,0,0.1-3.2,0.2-3.5c0.1-0.3,0.4,0,0.4,0.6s0,2.8,0,2.8L36.7,39.7z"/>
		<path fill="#009E3B" d="M-0.2,63.4c0,0,14.1-3.2,23.4-1.5s28.4,10.2,41.4-0.7c0,0-7.5,3.2-14.8,2.9c-7.3-0.2-13.9-1.7-19.6-3.5
			C24.4,58.9,13.1,57.7-0.2,63.4z"/>
	</g>
	<g>
		<rect x="70.2" y="47.4" fill="#5A5858" width="88.5" height="1.9"/>
		<g>
			<path d="M71.7,13.7c8.9,0,17.8,0,26.8,0c0,1.8,0,3.6,0,5.5c-7,0-14,0-21.1,0c-0.3,1.2,0,2.9-0.1,4.3c7.1,0,14.1,0,21.2,0
				c0,5.1,0,10.2,0,15.4c-9,0-17.9,0-26.9,0c0-1.8,0-3.6,0-5.5c7.1,0,14.1,0,21.2,0c0.3-1.2,0-3,0.1-4.4c-7.1,0-14.2,0-21.3,0
				c0-4.9,0-9.9,0-14.8C71.5,13.9,71.5,13.7,71.7,13.7z"/>
			<path d="M105.3,23c0,1.9,0,3.9,0,5.8c3,0.3,6.6,0,9.9,0.1c0-2,0-4,0-6c1.1,0,2.3,0,3.4,0c0,3.2,0,6.3,0,9.5c-2.2,0-4.4,0-6.6,0
				c0,2.1,0,4.2,0,6.3c-1.1,0-2.3,0-3.4,0c0-2.1,0-4.2,0-6.3c-2.3,0-4.6,0-6.8,0c0-3.2,0-6.3,0-9.5C102.9,23,104.1,23,105.3,23z"/>
			<path d="M139.5,23c0,5.3,0,10.6,0,15.9c-1.1,0-2.3,0-3.4,0c0-4.1,0-8.2,0-12.3c-3-0.3-6.6,0-9.8-0.1c-0.3,3.9,0,8.3-0.1,12.4
				c-1.2,0-2.4,0-3.5,0c0.1-5.2-0.2-10.8,0.1-15.9C128.4,23,134,23,139.5,23z"/>
			<path d="M159.8,23v5.7c0,0-1.2,1.2-1.8,1.8c0.5,0.8,1.8,2.3,1.8,2.3v6.1H143V23H159.8z M146.5,26.4c0,0.9,0,1.9,0,2.8
				c3.3,0,6.6,0,9.9,0c0-0.9,0-1.9,0-2.8C153.1,26.4,149.8,26.4,146.5,26.4z M146.5,32.6c0,0.9,0,1.9,0,2.8c3.3,0,6.6,0,9.9,0
				c0-0.9,0-1.9,0-2.8C153.1,32.6,149.8,32.6,146.5,32.6z"/>
			<path d="M182.3,23c5.6,0,11.2,0,16.9,0c0,5.3,0,10.6,0,15.9c-5.6,0-11.3,0-16.9,0C182.3,33.5,182.3,28.3,182.3,23z M185.9,26.4
				c-0.3,2.7,0,6-0.1,8.9c3.3,0,6.7,0,10,0c0-3,0-5.9,0-8.9C192.5,26.4,189.2,26.4,185.9,26.4z"/>
			<path d="M170.9,26.4c0.3,0,0.3,0.3,0.4,0.5c-0.2,0.2-0.6,0.2-0.8,0C170.5,26.6,171,26.8,170.9,26.4z"/>
			<path d="M172,28.4c0,0.1,0,0.2,0,0.3c-0.2,0-0.4,0-0.6,0C171.5,28.6,171.9,28.1,172,28.4z"/>
			<path d="M173.4,31c-0.1,0.5-0.4,0.8-0.8,1c0.3-0.3,0.1-0.6,0.3-0.9C173.1,31.1,173.2,30.9,173.4,31z"/>
			<path d="M171.8,32.4c-0.1,0.5-1.1,0.2-1.3-0.1c-0.3,0.1-0.5,0.6-0.9,0.3C170.3,31.9,170.8,32.1,171.8,32.4z"/>
			<path d="M174.2,32.7c-0.3,0.4-1,0.7-0.6,1.4c-0.6-0.1-0.8,0.3-1.3,0.4C173.1,34.2,173.2,32.5,174.2,32.7z"/>
			<path d="M172,33.5c0.3-0.1,0.3,0.1,0.5,0.1c-0.2,0.2-0.3,0.4-0.6,0.5C172,34,172.1,33.8,172,33.5z"/>
			<path d="M171.4,33.9c0,0.1,0,0.2,0.1,0.3c-0.6,0.2-1.3,0.5-1.9,0.5C170.1,34.3,170.6,33.9,171.4,33.9z"/>
			<path d="M171,35c0.3-0.3,1,0,1,0.5c-0.1,0.1-0.3,0.1-0.4,0.2C171.5,35.5,171.7,35,171,35z"/>
			<path d="M172.5,35c0.1-0.3,0.7,0,1-0.1C173.5,35.3,172.7,35.2,172.5,35z"/>
			<path d="M170,35c0.3,0.2,0.4,0.4,0.5,0.8C170,35.8,170.1,35.3,170,35z"/>
			<path d="M170.9,36c0.4,0.3,0.7,0,1.1,0.1C172,36.7,170.9,36.4,170.9,36z"/>
			<path d="M172.4,30.8c-0.1-0.1-0.2-0.3-0.1-0.6c-0.6,0-0.6,0.2-1-0.1c0-0.1,0.2-0.1,0.2-0.3c0-0.1-0.1-0.1-0.1-0.3
				c-0.4,0-0.5,0.2-0.8,0.4c-0.4-0.4,1.3-1,1.1-0.1c0.4,0,0.6,0,0.8-0.3c0-0.3-0.4-0.1-0.6-0.1c0.3-0.5,0.4-1.2,0.9-1.5
				c-0.4-0.3-0.5,0.3-1.1,0c0-0.3,0.3-0.3,0.4-0.5c-0.2-0.4-0.4,0.4-0.6,0c0.2-0.7,0.8-0.6,0.6-1.4c-0.4,0.4-1.1,0.3-1-0.5
				c-0.7,0.2-1,0.7-1.4,1.1c0.2,0.2,0.4,0.2,0.8,0.3c0,0.3-0.3,0.2-0.4,0.5c0.3,0.4,1.1-0.6,1.1,0.3c-0.5-0.1-0.7,0.1-0.9,0.4
				c0.3,0.2,0.5,0,1.1,0.1c-0.2,0.3-0.8,0.1-0.9,0.5c0.2,0.4,0.4-0.1,0.8,0c-0.4,0.5-1.1,0.8-1.7,1.3c0.3,0.2,1,0.1,1.4,0.3
				c-0.2,0.4-0.9,0.2-1.4,0.1c-0.1,0-0.1,0.2-0.1,0.4c0.1,0.4,0.3-0.1,0.5,0c0.1,0.3-0.2,0.2-0.4,0.3c0.2,0.5,1,0.1,1.3,0
				c-0.2,0.4-0.6,0.5-1,0.4c-0.1,0.3-0.4,0.5-0.4,0.9c-1.2-0.2-0.2,0.7,0.5,0.8c-0.5,0.2-1,0.1-1.3-0.3c-0.4,0.4,0.7,0.6,0.6,1.1
				c0.4,0.1,0.5-0.1,0.8-0.1c-0.3,0.3-0.6,0.8-1.4,0.6c0.3,0.4,0.4,2.2,1.5,2.2c-0.3,0.2-0.2,0.4-0.1,0.8c1,0.1,1.2-0.6,2.2-0.5
				c-0.6,0.3-0.9,0.9-1.6,0.8c0.3,0.4,1.4,0.6,1.8,0.4c0-0.3-0.4-0.1-0.6-0.1c0.2-0.6,0.8-0.8,1.3-1.1c0.3-0.1,0.2,0.2,0.3,0.4
				c0.3-0.1,0.8,0,0.8-0.5c-0.3-0.3-1.1-0.3-1.5-0.1c0.4-0.6,1.1-0.8,1.4-1.4c0.5-0.1,0,0.5-0.1,0.6c1.1,1.6-0.4,3.2-1.1,4.1
				c-1.6,0-2.7,0.4-3.6-0.3c-1.7-1.1-0.6-4.1-0.6-6.1c0-1.2-0.7-2.5-0.9-3.8c-0.2-1.4-0.2-2.8-0.5-4.1c0.4-2.3,2.9-3.6,5.2-2.4
				C173.8,24.6,175.3,29.7,172.4,30.8z M172.9,30.2c-0.3,0-0.5,0-0.5,0.3c0.2,0,0.2,0.2,0.5,0.1C172.9,30.5,172.9,30.3,172.9,30.2z
				 M170.6,24.9c0,0.6,0.2,0.2,0.6,0.3C171.2,24.7,170.9,24.8,170.6,24.9z M169.5,27.2c-0.4-0.8,0.5-1.3,0.4-1.8
				c-0.4,0.1-0.6,0.5-0.6,1c-0.3,0-0.2-0.3-0.5-0.4C169,26.3,169,27,169.5,27.2z M172.1,27.3c0.3,0,0.5-0.2,0.9-0.1
				c0-0.4-0.3-0.5-0.5-0.6C172.5,26.8,172,26.8,172.1,27.3z M168,27.2c0.3,0.1,0.7,0.3,0.6-0.2C168.3,26.9,168,26.9,168,27.2z
				 M168.7,27.4c0,0.2,0,0.4,0,0.6c0.2,0.1,0.5,0.1,0.6,0.3c0.1,0.4-0.6,0-0.5,0.5c0.3,0,0.6,0,0.9,0c-0.2-0.7,0.5-0.7,0-1.5
				C169,27.3,169.3,28.1,168.7,27.4z M173.2,29.3c0.3,0,0.8-0.7,0.3-0.8C173.4,28.9,173,28.8,173.2,29.3z M173.5,28.4
				c-0.4-0.3-0.3-0.2-0.1-1c-0.6,0.1-0.5,0.8-0.6,1.3C173.1,28.9,173.3,28.5,173.5,28.4z M169,30.3c0.1-0.5-0.6-1.2-1-1.5
				C168.2,29.4,168.4,30.1,169,30.3z M168.7,29.2c0,0.7,1.3,0.3,1.4,0C169.6,28.9,169.4,29.5,168.7,29.2z M169.1,30.8
				c0-0.3-0.2-0.4-0.5-0.4C168.6,30.8,168.8,30.9,169.1,30.8z M169.2,31.7c-0.3-0.1-0.4-0.5-0.8-0.6C168,31.4,169,32.5,169.2,31.7z
				 M169.2,34.1c0-0.3-0.2-0.5-0.5-0.5C168.7,33.9,168.9,34.1,169.2,34.1z M168.7,37.4c0.6,0.1,0.6-0.2,1,0
				c-0.1-0.7-0.7-0.1-1.1-0.5C168.6,37.1,168.6,37.3,168.7,37.4z M172.8,37.9c0.1-0.4,0.8-0.1,0.8-0.6
				C173.1,37.2,172.4,37.6,172.8,37.9z M169.4,38.6c0-0.3-0.2-0.5-0.5-0.5C168.9,38.4,169,38.6,169.4,38.6z"/>
			<path d="M174.1,30.5c0.4,0.5,0.2,2.2-1,2.2C173.2,31.6,174.1,31.3,174.1,30.5z M173.5,32.1c0.3,0.1,0.6-0.7,0.1-0.6
				C173.7,31.8,173.4,31.7,173.5,32.1z"/>
			<path d="M172.3,32.7c-0.1,0.4-0.8,0.3-1.1,0.5C171.2,32.8,171.9,32.9,172.3,32.7z"/>
		</g>
		<g>
			<rect x="170.8" y="44" fill="#009F3B" width="8.5" height="1.8"/>
			<g>
				<rect x="180.9" y="44" fill="#009F3B" width="8.5" height="1.8"/>
				<g>
					<rect x="161.6" y="44" fill="#009F3B" width="8.5" height="1.8"/>
					<rect x="170.8" y="50.2" fill="#009F3B" width="8.5" height="1.8"/>
					<rect x="180.9" y="50.2" fill="#009F3B" width="8.5" height="1.8"/>
					<rect x="171.5" y="47.2" fill="#009F3B" width="7.7" height="1.8"/>
					<rect x="191.5" y="47.2" fill="#009F3B" width="7.7" height="1.8"/>
					<rect x="180.9" y="44.3" fill="#009F3B" width="1.8" height="7.7"/>
					<rect x="191" y="44" fill="#009F3B" width="1.8" height="8"/>
					<rect x="170.8" y="44" fill="#009F3B" width="1.9" height="8"/>
					<rect x="165" y="44.6" fill="#009F3B" width="1.9" height="7.4"/>
					<rect x="197.8" y="44" fill="#009F3B" width="1.9" height="8"/>
					<rect x="201.3" y="50.3" fill="#009F3B" width="1.7" height="1.7"/>
				</g>
			</g>
		</g>
	</g>
</g>
</svg>
